<svg version="1.1" id="Layer_1" xmlns="http://www.w3.org/2000/svg" x="0" y="0" width="119.274" height="41.584" viewBox="0 0 119.274 41.584" xml:space="preserve"><g fill="#F04F67"><path d="M0 .816h6.488v12.361h.125c1.56-2.435 5.615-4.384 9.858-4.384 7.861 0 15.723 5.664 15.723 15.528 0 9.866-7.861 15.528-15.723 15.528-4.243 0-8.299-1.948-9.858-4.385h-.125v3.594H0V.816zm15.91 13.947c-5.429 0-9.422 4.08-9.422 9.56s3.993 9.562 9.422 9.562c5.428 0 9.421-4.081 9.421-9.562 0-5.48-3.993-9.56-9.421-9.56zM61.395 35.466h-.125c-2.06 2.68-5.803 4.385-9.921 4.385-9.92 0-15.66-7.915-15.66-15.528 0-7.245 6.177-15.528 15.973-15.528 4.492 0 7.924 1.888 9.608 4.384h.125V9.587h6.488V39.06h-6.488v-3.594zm-9.235-1.582c5.116 0 9.483-4.264 9.483-9.562 0-5.297-4.367-9.56-9.483-9.56-5.241 0-9.608 4.263-9.608 9.56 0 5.298 4.367 9.562 9.608 9.562zM74.994 9.587h6.488V39.06h-6.488zM112.054 35.466h-.125c-2.06 2.68-5.803 4.385-9.921 4.385-9.92 0-15.66-7.915-15.66-15.528 0-7.245 6.177-15.528 15.973-15.528 4.492 0 7.924 1.888 9.608 4.384h.125V9.587h6.488V39.06h-6.488v-3.594zm-9.235-1.582c5.116 0 9.483-4.264 9.483-9.562 0-5.297-4.367-9.56-9.483-9.56-5.241 0-9.608 4.263-9.608 9.56 0 5.298 4.367 9.562 9.608 9.562z"/><ellipse cx="78.312" cy="3.566" rx="3.653" ry="3.564"/></g></svg>