<?xml version="1.0" encoding="utf-8"?>
<!-- Generator: Adobe Illustrator 19.0.0, SVG Export Plug-In . SVG Version: 6.00 Build 0)  -->
<svg version="1.1" id="Layer_1" xmlns="http://www.w3.org/2000/svg" xmlns:xlink="http://www.w3.org/1999/xlink" x="0px" y="0px"
	 viewBox="0 0 73.9 8.4" style="enable-background:new 0 0 73.9 8.4;" xml:space="preserve">
<style type="text/css">
	.st0{fill:#FFFFFF;}
	.st1{fill:#FAF39C;}
</style>
<g id="XMLID_131_">
	<path id="XMLID_132_" class="st0" d="M4.3,1.3c0,0.1,0,0.2,0,0.3s0,0.1,0,0.2s0,0.1-0.1,0.1s-0.1,0-0.1,0H1.6v2h2.3
		c0,0,0.1,0,0.1,0S4,4,4.1,4.1s0,0.1,0,0.2s0,0.2,0,0.3s0,0.2,0,0.3s0,0.1,0,0.2S4,5.1,4,5.1s-0.1,0-0.1,0H1.6V8c0,0,0,0.1,0,0.1
		S1.5,8.2,1.4,8.2s-0.1,0-0.2,0s-0.2,0-0.4,0c-0.1,0-0.3,0-0.4,0s-0.2,0-0.2,0s-0.1,0-0.1-0.1S0,8,0,8V1.1c0-0.2,0-0.3,0.1-0.4
		s0.2-0.1,0.3-0.1H4c0,0,0.1,0,0.1,0s0.1,0.1,0.1,0.1s0,0.1,0,0.2S4.3,1.2,4.3,1.3z"/>
	<path id="XMLID_134_" class="st0" d="M9.6,8c0,0.1,0,0.1-0.1,0.1S9.4,8.2,9.3,8.2s-0.2,0-0.4,0c-0.2,0-0.3,0-0.4,0s-0.1,0-0.2-0.1
		s0-0.1,0-0.1V7.6C8.1,7.9,7.9,8,7.6,8.2S7,8.4,6.7,8.4c-0.3,0-0.5,0-0.8-0.1S5.5,8.1,5.3,7.9S5,7.6,4.9,7.4S4.8,6.9,4.8,6.7
		c0-0.3,0.1-0.6,0.2-0.8s0.3-0.4,0.5-0.6S6,5.1,6.4,5s0.8-0.1,1.2-0.1h0.5V4.6c0-0.2,0-0.3,0-0.4S8,3.9,7.9,3.8S7.7,3.7,7.6,3.6
		S7.3,3.6,7.1,3.6c-0.2,0-0.5,0-0.7,0.1S6.1,3.8,6,3.8S5.7,4,5.6,4S5.4,4.1,5.3,4.1c0,0-0.1,0-0.1,0S5.2,4,5.1,4s0-0.1,0-0.2
		s0-0.2,0-0.2c0-0.1,0-0.2,0-0.3S5.2,3.1,5.2,3s0.2-0.1,0.3-0.2S5.8,2.7,6,2.7s0.4-0.1,0.6-0.1S7,2.5,7.3,2.5c0.4,0,0.8,0,1.1,0.1
		S8.8,2.8,9,3s0.3,0.4,0.4,0.6s0.1,0.6,0.1,0.9V8z M8.1,5.8H7.6c-0.2,0-0.4,0-0.6,0.1S6.6,5.9,6.5,6S6.4,6.2,6.3,6.3
		S6.2,6.5,6.2,6.6c0,0.2,0.1,0.4,0.2,0.5S6.8,7.3,7,7.3c0.2,0,0.4-0.1,0.6-0.2s0.4-0.3,0.5-0.5V5.8z"/>
	<path id="XMLID_137_" class="st0" d="M16.3,5.3c0,0.5-0.1,0.9-0.2,1.3s-0.2,0.7-0.4,0.9S15.3,8,15,8.1s-0.6,0.2-1,0.2
		c-0.2,0-0.3,0-0.5,0s-0.3-0.1-0.4-0.2S12.8,8,12.7,7.9s-0.3-0.3-0.4-0.4V8c0,0,0,0.1,0,0.1s-0.1,0.1-0.1,0.1s-0.1,0-0.2,0
		s-0.2,0-0.3,0c-0.1,0-0.2,0-0.3,0s-0.1,0-0.2,0s-0.1,0-0.1-0.1s0-0.1,0-0.1V0.3c0,0,0-0.1,0-0.1s0.1-0.1,0.1-0.1s0.1,0,0.2,0
		s0.2,0,0.4,0s0.3,0,0.4,0s0.2,0,0.2,0s0.1,0,0.1,0.1s0,0.1,0,0.1v2.9c0.1-0.1,0.3-0.2,0.4-0.3s0.3-0.2,0.4-0.2s0.3-0.1,0.4-0.1
		s0.3,0,0.4,0c0.4,0,0.7,0.1,1,0.2s0.5,0.4,0.7,0.6s0.3,0.6,0.4,0.9S16.3,5,16.3,5.3z M14.8,5.4c0-0.2,0-0.4,0-0.6s-0.1-0.4-0.2-0.6
		S14.4,4,14.2,3.9s-0.3-0.1-0.5-0.1c-0.1,0-0.2,0-0.3,0s-0.2,0.1-0.3,0.1S13,4.1,12.9,4.2s-0.2,0.2-0.3,0.4v1.7
		c0.2,0.3,0.4,0.5,0.6,0.6s0.4,0.2,0.6,0.2c0.2,0,0.4,0,0.5-0.1s0.2-0.2,0.3-0.4s0.2-0.3,0.2-0.5S14.8,5.6,14.8,5.4z"/>
	<path id="XMLID_140_" class="st0" d="M20.8,3.3c0,0.1,0,0.3,0,0.3s0,0.2,0,0.2s0,0.1-0.1,0.1s-0.1,0-0.1,0c0,0-0.1,0-0.1,0
		s-0.1,0-0.1,0s-0.1,0-0.2,0s-0.1,0-0.2,0c-0.1,0-0.2,0-0.2,0S19.6,4,19.5,4.1s-0.2,0.2-0.3,0.3S19.1,4.6,19,4.8V8c0,0,0,0.1,0,0.1
		s-0.1,0.1-0.1,0.1s-0.1,0-0.2,0s-0.2,0-0.4,0s-0.3,0-0.4,0s-0.2,0-0.2,0s-0.1,0-0.1-0.1s0-0.1,0-0.1V2.8c0,0,0-0.1,0-0.1
		s0.1-0.1,0.1-0.1s0.1,0,0.2,0s0.2,0,0.3,0c0.1,0,0.2,0,0.3,0s0.1,0,0.2,0s0.1,0,0.1,0.1s0,0.1,0,0.1v0.7C18.9,3.3,19,3.1,19.1,3
		s0.2-0.2,0.3-0.3s0.2-0.1,0.3-0.2s0.2,0,0.3,0c0.1,0,0.1,0,0.2,0s0.1,0,0.2,0s0.1,0,0.2,0s0.1,0,0.1,0.1s0,0,0,0.1s0,0.1,0,0.1
		s0,0.1,0,0.2S20.8,3.1,20.8,3.3z"/>
	<path id="XMLID_142_" class="st0" d="M23.3,1c0,0.3-0.1,0.5-0.2,0.6s-0.3,0.2-0.7,0.2c-0.3,0-0.6-0.1-0.7-0.2s-0.2-0.3-0.2-0.6
		c0-0.3,0.1-0.5,0.2-0.6s0.3-0.2,0.7-0.2c0.3,0,0.6,0.1,0.7,0.2S23.3,0.7,23.3,1z M23.2,8c0,0,0,0.1,0,0.1s-0.1,0.1-0.1,0.1
		s-0.1,0-0.2,0s-0.2,0-0.4,0s-0.3,0-0.4,0s-0.2,0-0.2,0s-0.1,0-0.1-0.1s0-0.1,0-0.1V2.8c0,0,0-0.1,0-0.1s0.1-0.1,0.1-0.1
		s0.1,0,0.2,0s0.2,0,0.4,0s0.3,0,0.4,0s0.2,0,0.2,0s0.1,0,0.1,0.1s0,0.1,0,0.1V8z"/>
	<path id="XMLID_145_" class="st0" d="M28.6,7.2c0,0.1,0,0.2,0,0.3s0,0.1,0,0.2s0,0.1,0,0.1s0,0.1-0.1,0.1S28.4,7.9,28.2,8
		S28,8.1,27.9,8.2s-0.3,0.1-0.5,0.1s-0.3,0-0.5,0c-0.4,0-0.8-0.1-1.1-0.2S25.2,7.9,25,7.6s-0.4-0.5-0.5-0.9S24.4,6,24.4,5.5
		c0-0.5,0.1-1,0.2-1.4s0.3-0.7,0.5-0.9s0.5-0.4,0.8-0.6s0.7-0.2,1.1-0.2c0.2,0,0.3,0,0.5,0s0.3,0.1,0.4,0.1s0.2,0.1,0.4,0.2
		s0.2,0.1,0.2,0.2S28.5,3,28.6,3s0,0.1,0,0.1s0,0.1,0,0.2s0,0.2,0,0.2c0,0.2,0,0.4-0.1,0.5s-0.1,0.1-0.2,0.1c-0.1,0-0.1,0-0.2-0.1
		S28,4,27.9,3.9s-0.2-0.1-0.4-0.2s-0.3-0.1-0.5-0.1c-0.4,0-0.7,0.1-0.9,0.4s-0.3,0.7-0.3,1.3c0,0.3,0,0.5,0.1,0.7s0.1,0.4,0.2,0.5
		s0.2,0.3,0.4,0.3s0.3,0.1,0.5,0.1c0.2,0,0.4,0,0.5-0.1s0.3-0.1,0.4-0.2s0.2-0.1,0.3-0.2s0.1-0.1,0.2-0.1c0,0,0.1,0,0.1,0
		s0,0.1,0.1,0.1s0,0.1,0,0.2S28.6,7.1,28.6,7.2z"/>
	<path id="XMLID_147_" class="st0" d="M34.5,5.3c0,0.2,0,0.3-0.1,0.4s-0.2,0.1-0.3,0.1h-3.2c0,0.2,0,0.4,0.1,0.6s0.1,0.3,0.3,0.5
		s0.3,0.2,0.4,0.3s0.4,0.1,0.7,0.1c0.3,0,0.5,0,0.7-0.1s0.4-0.1,0.5-0.1s0.3-0.1,0.4-0.1s0.2-0.1,0.2-0.1c0,0,0.1,0,0.1,0
		s0,0,0.1,0.1s0,0.1,0,0.1s0,0.1,0,0.2c0,0.1,0,0.2,0,0.2s0,0.1,0,0.2s0,0.1,0,0.1s0,0.1-0.1,0.1S34.1,8,34,8.1s-0.3,0.1-0.4,0.1
		s-0.4,0.1-0.6,0.1s-0.5,0-0.7,0c-0.5,0-0.9-0.1-1.2-0.2s-0.6-0.3-0.9-0.5s-0.4-0.5-0.5-0.9S29.4,6,29.4,5.5c0-0.5,0.1-0.9,0.2-1.3
		s0.3-0.7,0.5-0.9s0.5-0.5,0.8-0.6s0.7-0.2,1.1-0.2c0.4,0,0.8,0.1,1.1,0.2S33.8,3,34,3.2s0.3,0.5,0.4,0.8s0.1,0.7,0.1,1V5.3z
		 M33.1,4.8c0-0.4-0.1-0.7-0.2-1S32.4,3.5,32,3.5c-0.2,0-0.4,0-0.5,0.1s-0.3,0.2-0.3,0.3S31,4.2,31,4.3s-0.1,0.3-0.1,0.5H33.1z"/>
	<path id="XMLID_150_" class="st1" d="M43.7,2.9c0,0.4-0.1,0.8-0.2,1.1S43.2,4.7,43,4.9S42.4,5.3,42,5.4s-0.8,0.2-1.3,0.2h-0.6V8
		c0,0,0,0.1,0,0.1S40,8.2,39.9,8.2s-0.1,0-0.2,0s-0.2,0-0.4,0c-0.1,0-0.3,0-0.4,0s-0.2,0-0.2,0s-0.1,0-0.1-0.1s0-0.1,0-0.1V1.2
		c0-0.2,0-0.3,0.1-0.4s0.2-0.1,0.4-0.1h1.8c0.2,0,0.4,0,0.5,0s0.4,0,0.6,0.1s0.5,0.1,0.7,0.2s0.4,0.3,0.6,0.5s0.3,0.4,0.4,0.7
		S43.7,2.6,43.7,2.9z M42.1,3.1c0-0.3,0-0.5-0.1-0.7S41.8,2.1,41.6,2s-0.3-0.1-0.4-0.2s-0.3,0-0.5,0h-0.7v2.6h0.7
		c0.2,0,0.5,0,0.6-0.1s0.3-0.2,0.4-0.3s0.2-0.3,0.2-0.4S42.1,3.3,42.1,3.1z"/>
	<path id="XMLID_153_" class="st1" d="M49.1,8c0,0.1,0,0.1-0.1,0.1s-0.1,0.1-0.2,0.1s-0.2,0-0.4,0c-0.2,0-0.3,0-0.4,0
		s-0.1,0-0.2-0.1s0-0.1,0-0.1V7.6c-0.2,0.2-0.5,0.4-0.7,0.5s-0.6,0.2-0.9,0.2c-0.3,0-0.5,0-0.8-0.1S45,8.1,44.8,7.9
		s-0.3-0.3-0.4-0.5s-0.1-0.5-0.1-0.7c0-0.3,0.1-0.6,0.2-0.8s0.3-0.4,0.5-0.6s0.5-0.3,0.9-0.3s0.8-0.1,1.2-0.1h0.5V4.6
		c0-0.2,0-0.3,0-0.4s-0.1-0.2-0.2-0.3s-0.2-0.1-0.3-0.2s-0.3-0.1-0.5-0.1c-0.2,0-0.5,0-0.7,0.1s-0.4,0.1-0.5,0.2S45.2,4,45.1,4
		s-0.2,0.1-0.2,0.1c0,0-0.1,0-0.1,0S44.7,4,44.7,4s0-0.1,0-0.2s0-0.2,0-0.2c0-0.1,0-0.2,0-0.3s0.1-0.1,0.1-0.2s0.2-0.1,0.3-0.2
		s0.3-0.1,0.5-0.2s0.4-0.1,0.6-0.1s0.4-0.1,0.7-0.1c0.4,0,0.8,0,1.1,0.1s0.5,0.2,0.7,0.4s0.3,0.4,0.4,0.6s0.1,0.6,0.1,0.9V8z
		 M47.6,5.8h-0.6c-0.2,0-0.4,0-0.6,0.1S46.1,5.9,46,6s-0.2,0.2-0.2,0.3s-0.1,0.2-0.1,0.3c0,0.2,0.1,0.4,0.2,0.5s0.3,0.2,0.6,0.2
		c0.2,0,0.4-0.1,0.6-0.2s0.4-0.3,0.5-0.5V5.8z"/>
	<path id="XMLID_156_" class="st1" d="M52,8c0,0,0,0.1,0,0.1s-0.1,0.1-0.1,0.1s-0.1,0-0.2,0s-0.2,0-0.4,0s-0.3,0-0.4,0s-0.2,0-0.2,0
		s-0.1,0-0.1-0.1s0-0.1,0-0.1V0.3c0,0,0-0.1,0-0.1s0.1-0.1,0.1-0.1s0.1,0,0.2,0s0.2,0,0.4,0s0.3,0,0.4,0s0.2,0,0.2,0s0.1,0,0.1,0.1
		s0,0.1,0,0.1V8z"/>
	<path id="XMLID_158_" class="st1" d="M55,8c0,0,0,0.1,0,0.1s-0.1,0.1-0.1,0.1s-0.1,0-0.2,0s-0.2,0-0.4,0s-0.3,0-0.4,0s-0.2,0-0.2,0
		s-0.1,0-0.1-0.1s0-0.1,0-0.1V0.3c0,0,0-0.1,0-0.1s0.1-0.1,0.1-0.1s0.1,0,0.2,0s0.2,0,0.4,0s0.3,0,0.4,0s0.2,0,0.2,0s0.1,0,0.1,0.1
		s0,0.1,0,0.1V8z"/>
	<path id="XMLID_160_" class="st1" d="M60.9,8c0,0.1,0,0.1-0.1,0.1s-0.1,0.1-0.2,0.1s-0.2,0-0.4,0c-0.2,0-0.3,0-0.4,0
		s-0.1,0-0.2-0.1s0-0.1,0-0.1V7.6c-0.2,0.2-0.5,0.4-0.7,0.5S58.4,8.4,58,8.4c-0.3,0-0.5,0-0.8-0.1s-0.4-0.2-0.6-0.3
		s-0.3-0.3-0.4-0.5s-0.1-0.5-0.1-0.7c0-0.3,0.1-0.6,0.2-0.8s0.3-0.4,0.5-0.6s0.5-0.3,0.9-0.3s0.8-0.1,1.2-0.1h0.5V4.6
		c0-0.2,0-0.3,0-0.4s-0.1-0.2-0.2-0.3s-0.2-0.1-0.3-0.2s-0.3-0.1-0.5-0.1c-0.2,0-0.5,0-0.7,0.1s-0.4,0.1-0.5,0.2S57,4,56.9,4
		s-0.2,0.1-0.2,0.1c0,0-0.1,0-0.1,0S56.5,4,56.5,4s0-0.1,0-0.2s0-0.2,0-0.2c0-0.1,0-0.2,0-0.3s0.1-0.1,0.1-0.2s0.2-0.1,0.3-0.2
		s0.3-0.1,0.5-0.2s0.4-0.1,0.6-0.1s0.4-0.1,0.7-0.1c0.4,0,0.8,0,1.1,0.1s0.5,0.2,0.7,0.4s0.3,0.4,0.4,0.6s0.1,0.6,0.1,0.9V8z
		 M59.4,5.8h-0.6c-0.2,0-0.4,0-0.6,0.1S58,5.9,57.9,6s-0.2,0.2-0.2,0.3s-0.1,0.2-0.1,0.3c0,0.2,0.1,0.4,0.2,0.5s0.3,0.2,0.6,0.2
		c0.2,0,0.4-0.1,0.6-0.2s0.4-0.3,0.5-0.5V5.8z"/>
	<path id="XMLID_163_" class="st1" d="M67.3,8c0,0,0,0.1,0,0.1s-0.1,0.1-0.1,0.1s-0.1,0-0.2,0s-0.2,0-0.3,0c-0.1,0-0.2,0-0.3,0
		s-0.1,0-0.2,0s-0.1,0-0.1-0.1s0-0.1,0-0.1V7.4c-0.3,0.3-0.6,0.5-0.9,0.7s-0.6,0.2-0.9,0.2c-0.4,0-0.7-0.1-0.9-0.2s-0.4-0.3-0.6-0.5
		S62.5,7.3,62.4,7s-0.1-0.6-0.1-1V2.8c0,0,0-0.1,0-0.1s0.1-0.1,0.1-0.1s0.1,0,0.2,0s0.2,0,0.4,0c0.1,0,0.3,0,0.4,0s0.2,0,0.2,0
		s0.1,0,0.1,0.1s0,0.1,0,0.1v3c0,0.3,0,0.5,0.1,0.6s0.1,0.3,0.2,0.4s0.2,0.2,0.3,0.2s0.2,0.1,0.4,0.1c0.2,0,0.4-0.1,0.6-0.2
		s0.4-0.3,0.6-0.6V2.8c0,0,0-0.1,0-0.1s0.1-0.1,0.1-0.1s0.1,0,0.2,0s0.2,0,0.4,0s0.3,0,0.4,0s0.2,0,0.2,0s0.1,0,0.1,0.1s0,0.1,0,0.1
		V8z"/>
	<path id="XMLID_165_" class="st1" d="M73.8,8c0,0,0,0.1,0,0.1s-0.1,0.1-0.1,0.1s-0.1,0-0.2,0s-0.2,0-0.3,0c-0.1,0-0.2,0-0.3,0
		s-0.1,0-0.2,0s-0.1,0-0.1-0.1s0-0.1,0-0.1V7.4C72.2,7.7,72,8,71.7,8.1s-0.6,0.2-1,0.2c-0.4,0-0.7-0.1-1-0.2S69.2,7.8,69,7.5
		s-0.3-0.6-0.4-0.9s-0.1-0.7-0.1-1.1c0-0.5,0-0.9,0.1-1.3s0.2-0.7,0.4-0.9s0.4-0.5,0.7-0.6s0.6-0.2,1-0.2c0.3,0,0.6,0.1,0.8,0.2
		s0.5,0.3,0.7,0.5V0.3c0,0,0-0.1,0-0.1s0.1-0.1,0.1-0.1s0.1,0,0.2,0s0.2,0,0.4,0s0.3,0,0.4,0s0.2,0,0.2,0s0.1,0,0.1,0.1s0,0.1,0,0.1
		V8z M72.3,4.5c-0.2-0.3-0.4-0.5-0.6-0.6s-0.4-0.2-0.6-0.2c-0.2,0-0.4,0-0.5,0.1s-0.3,0.2-0.3,0.4s-0.1,0.3-0.2,0.5S70,5.2,70,5.4
		c0,0.2,0,0.4,0.1,0.6s0.1,0.4,0.2,0.6s0.2,0.3,0.3,0.4s0.3,0.1,0.5,0.1c0.1,0,0.2,0,0.3,0s0.2-0.1,0.3-0.1s0.2-0.2,0.3-0.3
		s0.2-0.2,0.3-0.4V4.5z"/>
</g>
</svg>
