<?xml version="1.0" encoding="utf-8"?>
<!-- Generator: Adobe Illustrator 16.0.0, SVG Export Plug-In . SVG Version: 6.00 Build 0)  -->
<!DOCTYPE svg PUBLIC "-//W3C//DTD SVG 1.1//EN" "http://www.w3.org/Graphics/SVG/1.1/DTD/svg11.dtd">
<svg version="1.1" id="Layer_1" xmlns="http://www.w3.org/2000/svg" xmlns:xlink="http://www.w3.org/1999/xlink" x="0px" y="0px"
	 width="119.274px" height="41.584px" viewBox="0 0 119.274 41.584" enable-background="new 0 0 119.274 41.584"
	 xml:space="preserve">
<g>
	<path fill="#F04F67" d="M0,0.816h6.488v12.361h0.125c1.56-2.435,5.615-4.384,9.858-4.384c7.861,0,15.723,5.664,15.723,15.528
		c0,9.866-7.861,15.528-15.723,15.528c-4.243,0-8.299-1.948-9.858-4.385H6.488v3.594H0V0.816z M15.91,14.763
		c-5.429,0-9.422,4.08-9.422,9.56c0,5.48,3.993,9.562,9.422,9.562c5.428,0,9.421-4.081,9.421-9.562
		C25.331,18.843,21.338,14.763,15.91,14.763z"/>
	<path fill="#F04F67" d="M61.395,35.466H61.27c-2.06,2.68-5.803,4.385-9.921,4.385c-9.92,0-15.66-7.915-15.66-15.528
		c0-7.245,6.177-15.528,15.973-15.528c4.492,0,7.924,1.888,9.608,4.384h0.125V9.587h6.488V39.06h-6.488V35.466z M52.16,33.884
		c5.116,0,9.483-4.264,9.483-9.562c0-5.297-4.367-9.56-9.483-9.56c-5.241,0-9.608,4.263-9.608,9.56
		C42.552,29.62,46.919,33.884,52.16,33.884z"/>
	<rect x="74.994" y="9.587" fill="#F04F67" width="6.488" height="29.473"/>
	<path fill="#F04F67" d="M112.054,35.466h-0.125c-2.06,2.68-5.803,4.385-9.921,4.385c-9.92,0-15.66-7.915-15.66-15.528
		c0-7.245,6.177-15.528,15.973-15.528c4.492,0,7.924,1.888,9.608,4.384h0.125V9.587h6.488V39.06h-6.488V35.466z M102.819,33.884
		c5.116,0,9.483-4.264,9.483-9.562c0-5.297-4.367-9.56-9.483-9.56c-5.241,0-9.608,4.263-9.608,9.56
		C93.211,29.62,97.578,33.884,102.819,33.884z"/>
	<ellipse fill="#F04F67" cx="78.312" cy="3.566" rx="3.653" ry="3.564"/>
</g>
</svg>
