<?xml version="1.0" encoding="utf-8"?>
<!-- Generator: Adobe Illustrator 19.0.0, SVG Export Plug-In . SVG Version: 6.00 Build 0)  -->
<svg version="1.1" id="Layer_1" xmlns="http://www.w3.org/2000/svg" xmlns:xlink="http://www.w3.org/1999/xlink" x="0px" y="0px"
	 viewBox="0 0 10.9 8.4" style="enable-background:new 0 0 10.9 8.4;" xml:space="preserve">
<style type="text/css">
	.st0{fill:#FFFFFF;}
	.st1{fill:#ff4b68;}
</style>
<g id="XMLID_1_">
	<path id="XMLID_42_" class="st0" d="M4.3,1.3c0,0.1,0,0.2,0,0.3s0,0.1,0,0.2s0,0.1-0.1,0.1s-0.1,0-0.1,0H1.6v2H4c0,0,0.1,0,0.1,0
		S4.1,4,4.1,4.1s0,0.1,0,0.2s0,0.2,0,0.3s0,0.2,0,0.3s0,0.1,0,0.2s0,0.1-0.1,0.1S4,5.2,4,5.2H1.6V8c0,0,0,0.1,0,0.1S1.5,8.2,1.5,8.2
		s-0.1,0-0.2,0s-0.2,0-0.4,0c-0.1,0-0.3,0-0.4,0s-0.2,0-0.2,0s-0.1,0-0.1-0.1s0-0.1,0-0.1V1.1c0-0.2,0-0.3,0.1-0.4s0.2-0.1,0.3-0.1
		h3.6c0,0,0.1,0,0.1,0s0.1,0.1,0.1,0.1s0,0.1,0,0.2S4.3,1.2,4.3,1.3z"/>
	<path id="XMLID_44_" class="st1" d="M10.8,2.9c0,0.4-0.1,0.8-0.2,1.1S10.3,4.7,10,4.9S9.4,5.3,9.1,5.4S8.3,5.6,7.8,5.6H7.1V8
		c0,0,0,0.1,0,0.1S7,8.2,7,8.2s-0.1,0-0.2,0s-0.2,0-0.4,0c-0.1,0-0.3,0-0.4,0s-0.2,0-0.2,0s-0.1,0-0.1-0.1s0-0.1,0-0.1V1.2
		c0-0.2,0-0.3,0.1-0.4S6,0.6,6.1,0.6h1.8c0.2,0,0.4,0,0.5,0s0.4,0,0.6,0.1S9.5,0.9,9.7,1s0.4,0.3,0.6,0.5s0.3,0.4,0.4,0.7
		S10.8,2.6,10.8,2.9z M9.2,3.1c0-0.3,0-0.5-0.1-0.7S8.8,2.1,8.7,2S8.4,1.9,8.3,1.9s-0.3,0-0.5,0H7.1v2.6h0.7c0.2,0,0.5,0,0.6-0.1
		S8.8,4.1,8.9,4S9,3.8,9.1,3.6S9.2,3.3,9.2,3.1z"/>
</g>
</svg>
